<svg xmlns="http://www.w3.org/2000/svg" width="268" height="69" viewBox="0 0 268 69">
  <g id="Vector_Smart_Object" data-name="Vector Smart Object" transform="translate(-69.143 -174.673)">
    <g id="Group_77" data-name="Group 77">
      <g id="Group_75" data-name="Group 75">
        <path id="Path_50" data-name="Path 50" d="M160.1,233.911a16.5,16.5,0,0,1-11.4-4.035,13.267,13.267,0,0,1-4.525-10.376,12.093,12.093,0,0,1,4.792-10.154q4.792-3.68,13.71-4.212l11.979-.71v-3.148a6.444,6.444,0,0,0-2.152-5.144,8.614,8.614,0,0,0-5.834-1.862,9.748,9.748,0,0,0-5.79,1.6,6.513,6.513,0,0,0-2.729,4.3H146.3a14.476,14.476,0,0,1,5.989-11.285q5.634-4.278,14.952-4.279,9.139,0,14.641,4.345a13.96,13.96,0,0,1,5.5,11.529v32.678H174.877v-7.271h-.266a13.99,13.99,0,0,1-5.946,5.875A17.788,17.788,0,0,1,160.1,233.911Zm4.259-9.356a11,11,0,0,0,7.3-2.5,7.891,7.891,0,0,0,2.995-6.318v-3.459l-10.027.621a10.149,10.149,0,0,0-5.613,1.818,4.939,4.939,0,0,0-1.974,4.079,5.051,5.051,0,0,0,2,4.212A8.44,8.44,0,0,0,164.362,224.555Z" fill="#fff"/>
        <path id="Path_51" data-name="Path 51" d="M199.191,174.673h12.955v10.952h8.785v9.755h-8.785v22.747q0,5.366,5.591,5.365a19.409,19.409,0,0,0,3.15-.221V232.8a28.164,28.164,0,0,1-6.167.532q-8.385,0-11.957-3.015t-3.572-9.976V195.38h-6.7v-9.755h6.7Z" fill="#fff"/>
        <path id="Path_52" data-name="Path 52" d="M227.231,199.592a12.952,12.952,0,0,1,5.457-10.885q5.458-4.1,14.6-4.1,8.918,0,14.33,4.168a13.652,13.652,0,0,1,5.546,11.085H255.228a5.993,5.993,0,0,0-2.374-4.523,10.985,10.985,0,0,0-11.136-.244,4.3,4.3,0,0,0-2.019,3.7q0,3.458,6.211,4.922l9.1,1.951q7.143,1.6,10.271,4.634t3.128,8.358a13.271,13.271,0,0,1-5.857,11.262q-5.857,4.257-15.307,4.257-9.407,0-15.04-4.168a14.716,14.716,0,0,1-6.168-11.218h12.645a6.807,6.807,0,0,0,2.773,4.656,10.331,10.331,0,0,0,6.145,1.641,10.646,10.646,0,0,0,5.79-1.352,4.192,4.192,0,0,0,2.108-3.7,3.559,3.559,0,0,0-1.331-2.9,11.647,11.647,0,0,0-4.526-1.84l-8.785-1.951Q227.231,210.234,227.231,199.592Z" fill="#fff"/>
      </g>
      <path id="Path_53" data-name="Path 53" d="M131.982,193.584a32.289,32.289,0,0,0-19.8-16.284,31.915,31.915,0,0,0-25.2,2.649,33.248,33.248,0,0,0-13.558,45.632,33.139,33.139,0,0,0,20.1,16.532,32.208,32.208,0,0,0,25.723-2.582,32.716,32.716,0,0,0,9.269-7.246,29.755,29.755,0,0,0,5.623-9.851l-32.877-11.583,30.991-16.762Zm-28.829,7.366a7.408,7.408,0,0,1-3.672,4.493,7.537,7.537,0,0,1-5.813.692,7.375,7.375,0,0,1-5.032-9.292,7.818,7.818,0,0,1,9.529-5.154,7.126,7.126,0,0,1,4.481,3.6A7.05,7.05,0,0,1,103.153,200.95Z" fill="#ffbb0e"/>
      <g id="Group_76" data-name="Group 76">
        <path id="Path_54" data-name="Path 54" d="M277.064,232.514v-4.634l18.714-24.57v-.133H277.2v-5.734h26.854v4.934L285.8,226.647v.133h18.447v5.734Z" fill="#ffbb0e"/>
        <path id="Path_55" data-name="Path 55" d="M309.955,232.514v-4.634l18.714-24.57v-.133H310.089v-5.734h26.854v4.934L318.7,226.647v.133h18.447v5.734Z" fill="#ffbb0e"/>
      </g>
    </g>
  </g>
</svg>
