<?xml version="1.0" encoding="utf-8"?>
<!-- Generator: Adobe Illustrator 16.0.0, SVG Export Plug-In . SVG Version: 6.00 Build 0)  -->
<!DOCTYPE svg PUBLIC "-//W3C//DTD SVG 1.1//EN" "http://www.w3.org/Graphics/SVG/1.1/DTD/svg11.dtd">
<svg version="1.1" id="Layer_1" xmlns="http://www.w3.org/2000/svg" xmlns:xlink="http://www.w3.org/1999/xlink" x="0px" y="0px"
	 width="690.129px" height="257.799px" viewBox="0 0 690.129 257.799" enable-background="new 0 0 690.129 257.799"
	 xml:space="preserve">
<g>
	<g>
		<path fill="#FFFFFF" d="M139.391,92.622c0,5.035-3.675,8.982-9.525,8.982c-5.581,0-9.255-3.947-9.255-8.982
			c0-5.172,3.81-9.119,9.391-9.119C135.716,83.503,139.254,87.45,139.391,92.622z M121.563,177.404V111.13h16.875v66.273H121.563z"
			/>
	</g>
	<path fill="#FFFFFF" d="M203.808,257.799H53.992C24.22,257.799,0,233.579,0,203.807V53.987C0,24.218,24.22,0,53.992,0h149.816
		c29.771,0,53.991,24.218,53.991,53.987v149.82C257.799,233.579,233.579,257.799,203.808,257.799z M53.992,8.101
		C28.688,8.101,8.1,28.685,8.1,53.987v149.82c0,25.302,20.589,45.892,45.893,45.892h149.816c25.303,0,45.89-20.59,45.89-45.892
		V53.987c0-25.303-20.587-45.887-45.89-45.887H53.992z"/>
	<path fill="#FFFFFF" d="M184.143,49.055c14.563,0,26.413,11.848,26.413,26.413v110.488c0,14.564-11.849,26.413-26.413,26.413
		H73.658c-14.566,0-26.416-11.849-26.416-26.413V75.468c0-14.565,11.85-26.413,26.416-26.413H184.143 M184.143,38.64H73.658
		c-20.341,0-36.831,16.489-36.831,36.828v110.488c0,20.34,16.49,36.83,36.831,36.83h110.485c20.34,0,36.828-16.49,36.828-36.83
		V75.468C220.97,55.129,204.482,38.64,184.143,38.64L184.143,38.64z"/>
	<g>
		<path fill="#FFFFFF" d="M301.711,36.674c12.211-2.059,28.202-3.823,48.553-3.823c25.004,0,43.319,5.882,54.948,16.472
			c10.759,9.413,17.155,23.826,17.155,41.476c0,17.943-5.232,32.062-15.119,42.357c-13.372,14.412-35.179,21.767-59.891,21.767
			c-7.56,0-14.538-0.295-20.353-1.765v79.42h-25.293V36.674z M327.004,132.273c5.524,1.471,12.502,2.059,20.933,2.059
			c30.528,0,49.135-15.001,49.135-42.357c0-26.179-18.317-38.828-46.228-38.828c-11.048,0-19.479,0.882-23.841,2.059V132.273z"/>
		<path fill="#FFFFFF" d="M575.584,160.218c0,52.651-36.052,75.595-70.069,75.595c-38.085,0-67.45-28.237-67.45-73.243
			c0-47.651,30.819-75.596,69.776-75.596C548.255,86.974,575.584,116.683,575.584,160.218z M463.942,161.688
			c0,31.18,17.733,54.711,42.737,54.711c24.421,0,42.737-23.237,42.737-55.3c0-24.12-11.92-54.711-42.156-54.711
			S463.942,134.626,463.942,161.688z"/>
		<path fill="#FFFFFF" d="M604.362,206.104c7.562,5,20.934,10.295,33.727,10.295c18.607,0,27.33-9.411,27.33-21.178
			c0-12.354-7.271-19.12-26.168-26.18c-25.295-9.119-37.215-23.237-37.215-40.298c0-22.944,18.317-41.769,48.554-41.769
			c14.246,0,26.749,4.118,34.598,8.825l-6.396,18.825c-5.523-3.529-15.698-8.236-28.782-8.236c-15.119,0-23.549,8.824-23.549,19.414
			c0,11.766,8.43,17.061,26.746,24.12c24.423,9.413,36.924,21.768,36.924,42.946c0,25.003-19.188,42.652-52.622,42.652
			c-15.409,0-29.655-3.825-39.54-9.707L604.362,206.104z"/>
	</g>
</g>
</svg>
